<svg version="1.1" id="Layer_1" xmlns="http://www.w3.org/2000/svg" xmlns:xlink="http://www.w3.org/1999/xlink" x="0px" y="0px"
	 width="100%" viewBox="0 0 500 500" enable-background="new 0 0 500 500" xml:space="preserve">
<path fill="#000000" opacity="1.000000" stroke="none" 
	d="
M226.000000,501.000000 
	C150.666687,501.000000 75.833366,501.000000 1.000040,501.000000 
	C1.000027,334.333405 1.000027,167.666779 1.000013,1.000130 
	C167.666565,1.000086 334.333130,1.000086 500.999756,1.000043 
	C500.999847,167.666534 500.999847,334.333069 500.999939,500.999817 
	C409.500000,501.000000 318.000000,501.000000 226.000000,501.000000 
M348.119995,174.027420 
	C346.189850,174.027420 344.259735,174.027420 341.856934,174.027420 
	C341.856934,179.327042 341.856934,184.082733 341.856934,188.772720 
	C338.046356,189.268524 334.733795,189.699539 330.815063,190.209412 
	C330.815063,184.326065 330.815063,179.252548 330.815063,174.230453 
	C328.019226,174.230453 325.743591,174.230453 323.278961,174.230453 
	C323.278961,186.853638 323.278961,199.246704 323.278961,211.663773 
	C325.953094,211.663773 328.339203,211.663773 331.241211,211.663773 
	C331.241211,206.603775 331.241211,201.872711 331.241211,197.264618 
	C335.045807,197.264618 338.319366,197.264618 342.082520,197.264618 
	C342.082520,202.262756 342.082520,207.007935 342.082520,211.834076 
	C344.728638,211.834076 346.870819,211.834076 349.822021,211.536316 
	C349.879486,199.719269 349.952362,187.902222 349.952179,176.085175 
	C349.952179,175.445419 349.340210,174.805664 348.119995,174.027420 
M188.901779,180.453979 
	C187.703369,183.411667 186.033371,186.272110 185.399414,189.346222 
	C183.814713,197.030533 186.987701,206.275085 195.091934,210.616226 
	C203.863586,215.314865 214.975143,212.921173 220.105728,207.347122 
	C227.356674,199.469437 226.730026,185.556137 218.962692,178.468933 
	C210.072449,170.357147 197.398590,171.758102 188.901779,180.453979 
M259.955048,208.855865 
	C259.955048,203.609344 259.955048,198.362823 259.955048,193.275391 
	C256.593811,193.275391 253.986710,193.275391 250.945190,193.275391 
	C250.945190,197.290253 250.945190,201.041321 250.945190,204.793060 
	C242.604477,204.592667 238.169861,199.329391 239.002594,191.145935 
	C239.726227,184.034866 246.414215,180.999374 257.761353,182.887970 
	C258.247375,180.450851 258.734955,178.005875 259.208405,175.631744 
	C245.435379,171.367554 233.847794,174.799850 230.415573,188.031464 
	C228.511490,195.371902 231.659592,205.244934 238.122833,209.527588 
	C243.367645,213.002884 253.510330,214.894714 259.955048,208.855865 
M313.381897,209.978760 
	C318.738434,203.201416 318.705444,198.844971 312.669312,193.318390 
	C310.602051,191.425659 307.499847,190.698776 305.274536,188.930679 
	C303.821625,187.776306 303.096283,185.706284 302.045013,184.046448 
	C303.889038,183.164032 305.669678,181.804489 307.596863,181.548645 
	C309.166290,181.340271 310.911163,182.453140 314.259125,183.511490 
	C313.589569,180.117325 313.884155,177.010254 312.471344,175.420456 
	C309.659210,172.255966 300.506531,172.661499 296.617310,176.239639 
	C293.283875,179.306488 292.159973,183.543106 293.671417,188.321777 
	C295.390900,193.758163 299.819733,195.394409 304.399292,197.298264 
	C305.890411,197.918152 306.808319,199.916824 307.988403,201.284882 
	C306.463898,202.518295 305.083466,204.062988 303.357727,204.861710 
	C302.409332,205.300659 300.851746,204.577072 299.618011,204.211639 
	C297.519714,203.590088 295.460297,202.837479 291.894562,201.639252 
	C293.161682,205.515305 293.269897,209.758835 295.102783,210.722672 
	C300.704071,213.668167 306.934906,214.671814 313.381897,209.978760 
M281.445892,181.999329 
	C282.112274,181.999161 282.783722,181.945374 283.444122,182.008011 
	C286.438507,182.292007 288.083740,181.454590 288.084320,177.944992 
	C288.084930,174.324295 286.217224,173.898087 283.333527,173.967941 
	C278.381561,174.087845 273.424591,174.001083 268.286560,174.001083 
	C268.286560,186.854279 268.286560,199.237564 268.286560,211.673630 
	C274.974518,211.673630 281.372009,211.673630 287.798828,211.673630 
	C287.798828,209.402802 287.798828,207.459152 287.798828,204.997604 
	C283.875305,204.997604 280.137543,204.997604 276.308563,204.997604 
	C276.308563,202.078613 276.308563,199.686432 276.308563,197.908691 
	C279.374908,195.109955 285.561859,200.445023 285.927094,193.346451 
	C286.345490,185.215225 279.113403,191.079529 276.306091,188.213135 
	C276.306091,186.420883 276.306091,184.369431 276.306091,181.999359 
	C277.908020,181.999359 279.217590,181.999359 281.445892,181.999329 
M160.058289,178.228058 
	C158.194626,171.298203 152.705505,174.876526 147.500931,173.755875 
	C154.854477,186.033127 165.273499,196.322449 160.327194,211.716156 
	C164.177628,211.716156 166.894577,211.716156 170.866730,211.716156 
	C165.806854,196.278412 175.610840,185.746948 182.938782,174.579681 
	C175.564117,172.603470 170.381149,173.967987 168.060776,181.320740 
	C167.570908,182.873032 166.315155,184.183655 165.195297,185.947357 
	C163.502106,183.440338 161.969360,181.170883 160.058289,178.228058 
M369.978821,269.496338 
	C369.978821,262.057556 369.978821,254.618805 369.978821,247.180038 
	C369.769623,247.182983 369.560394,247.185913 369.351196,247.188858 
	C369.351196,259.745850 369.351196,272.302826 369.351196,284.859802 
	C369.560394,284.860138 369.769623,284.860443 369.978821,284.860779 
	C369.978821,280.071686 369.978821,275.282623 369.978821,269.496338 
M403.992004,274.464172 
	C403.992004,278.042175 403.992004,281.620178 403.992004,285.198151 
	C404.161346,285.192108 404.330719,285.186035 404.500061,285.179993 
	C404.500061,272.518280 404.500061,259.856567 404.500061,247.194870 
	C404.330719,247.199860 404.161346,247.204834 403.992004,247.209824 
	C403.992004,255.965088 403.992004,264.720337 403.992004,274.464172 
M106.000290,272.485474 
	C106.000290,276.763336 106.000290,281.041229 106.000290,285.319092 
	C106.249992,285.316010 106.499702,285.312927 106.749405,285.309875 
	C106.749405,273.103607 106.749405,260.897339 106.749405,248.691086 
	C106.499702,248.687576 106.249992,248.684067 106.000290,248.680557 
	C106.000290,256.283905 106.000290,263.887238 106.000290,272.485474 
M114.000351,267.499542 
	C114.000351,273.422028 114.000351,279.344543 114.000351,285.267029 
	C114.250290,285.262787 114.500229,285.258514 114.750168,285.254272 
	C114.750168,273.084717 114.750168,260.915192 114.750168,248.745636 
	C114.500229,248.741379 114.250290,248.737122 114.000351,248.732880 
	C114.000351,254.655411 114.000351,260.577942 114.000351,267.499542 
M151.000580,268.498077 
	C151.000580,273.950562 151.000580,279.403046 151.000580,284.855560 
	C151.250259,284.853088 151.499954,284.850616 151.749634,284.848175 
	C151.749634,272.949341 151.749634,261.050537 151.749634,249.151718 
	C151.499954,249.149048 151.250259,249.146378 151.000580,249.143692 
	C151.000580,255.262268 151.000580,261.380859 151.000580,268.498077 
M177.000122,275.432343 
	C177.000122,278.399597 177.000122,281.366852 177.000122,284.334076 
	C177.224426,284.324127 177.448746,284.314178 177.673050,284.304199 
	C177.673050,272.767029 177.673050,261.229858 177.673050,249.692673 
	C177.448746,249.693115 177.224426,249.693558 177.000122,249.694000 
	C177.000122,257.947021 177.000122,266.200043 177.000122,275.432343 
M269.999756,254.692062 
	C269.999756,252.763321 269.999756,250.834564 269.999756,248.905823 
	C269.666595,248.926910 269.333405,248.947983 269.000244,248.969070 
	C269.000244,255.097641 269.000244,261.226227 269.000244,267.354797 
	C269.000244,273.248077 269.000244,279.141357 269.000244,285.034637 
	C269.333405,285.026642 269.666595,285.018646 269.999756,285.010651 
	C269.999756,275.222076 269.999756,265.433502 269.999756,254.692062 
M336.000244,279.307922 
	C336.000244,281.236694 336.000244,283.165436 336.000244,285.094208 
	C336.333405,285.073181 336.666595,285.052185 336.999756,285.031158 
	C336.999756,278.902496 336.999756,272.773834 336.999756,266.645172 
	C336.999756,260.751892 336.999756,254.858612 336.999756,248.965332 
	C336.666595,248.973312 336.333405,248.981308 336.000244,248.989304 
	C336.000244,258.777893 336.000244,268.566498 336.000244,279.307922 
z"/>
<path fill="#FF3636" opacity="1.000000" stroke="none" 
	d="
M188.965393,180.075653 
	C197.398590,171.758102 210.072449,170.357147 218.962692,178.468933 
	C226.730026,185.556137 227.356674,199.469437 220.105728,207.347122 
	C214.975143,212.921173 203.863586,215.314865 195.091934,210.616226 
	C186.987701,206.275085 183.814713,197.030533 185.399414,189.346222 
	C186.033371,186.272110 187.703369,183.411667 188.965393,180.075653 
M194.879837,196.477890 
	C197.016632,204.396423 203.106506,206.982391 210.119812,202.949265 
	C214.546951,200.403366 217.155365,195.399551 215.865402,190.949081 
	C214.664505,186.805908 212.549896,182.797394 207.833023,182.090759 
	C198.908844,180.753860 193.306747,186.694656 194.879837,196.477890 
z"/>
<path fill="#FF3535" opacity="1.000000" stroke="none" 
	d="
M259.843811,209.280899 
	C253.510330,214.894714 243.367645,213.002884 238.122833,209.527588 
	C231.659592,205.244934 228.511490,195.371902 230.415573,188.031464 
	C233.847794,174.799850 245.435379,171.367554 259.208405,175.631744 
	C258.734955,178.005875 258.247375,180.450851 257.761353,182.887970 
	C246.414215,180.999374 239.726227,184.034866 239.002594,191.145935 
	C238.169861,199.329391 242.604477,204.592667 250.945190,204.793060 
	C250.945190,201.041321 250.945190,197.290253 250.945190,193.275391 
	C253.986710,193.275391 256.593811,193.275391 259.955048,193.275391 
	C259.955048,198.362823 259.955048,203.609344 259.843811,209.280899 
z"/>
<path fill="#FF3232" opacity="1.000000" stroke="none" 
	d="
M349.013000,211.834076 
	C346.870819,211.834076 344.728638,211.834076 342.082520,211.834076 
	C342.082520,207.007935 342.082520,202.262756 342.082520,197.264618 
	C338.319366,197.264618 335.045807,197.264618 331.241211,197.264618 
	C331.241211,201.872711 331.241211,206.603775 331.241211,211.663773 
	C328.339203,211.663773 325.953094,211.663773 323.278961,211.663773 
	C323.278961,199.246704 323.278961,186.853638 323.278961,174.230453 
	C325.743591,174.230453 328.019226,174.230453 330.815063,174.230453 
	C330.815063,179.252548 330.815063,184.326065 330.815063,190.209412 
	C334.733795,189.699539 338.046356,189.268524 341.856934,188.772720 
	C341.856934,184.082733 341.856934,179.327042 341.856934,174.027420 
	C344.259735,174.027420 346.189850,174.027420 348.564056,174.554596 
	C349.009766,187.332535 349.011383,199.583298 349.013000,211.834076 
z"/>
<path fill="#FF3535" opacity="1.000000" stroke="none" 
	d="
M312.994568,210.051773 
	C306.934906,214.671814 300.704071,213.668167 295.102783,210.722672 
	C293.269897,209.758835 293.161682,205.515305 291.894562,201.639252 
	C295.460297,202.837479 297.519714,203.590088 299.618011,204.211639 
	C300.851746,204.577072 302.409332,205.300659 303.357727,204.861710 
	C305.083466,204.062988 306.463898,202.518295 307.988403,201.284882 
	C306.808319,199.916824 305.890411,197.918152 304.399292,197.298264 
	C299.819733,195.394409 295.390900,193.758163 293.671417,188.321777 
	C292.159973,183.543106 293.283875,179.306488 296.617310,176.239639 
	C300.506531,172.661499 309.659210,172.255966 312.471344,175.420456 
	C313.884155,177.010254 313.589569,180.117325 314.259125,183.511490 
	C310.911163,182.453140 309.166290,181.340271 307.596863,181.548645 
	C305.669678,181.804489 303.889038,183.164032 302.045013,184.046448 
	C303.096283,185.706284 303.821625,187.776306 305.274536,188.930679 
	C307.499847,190.698776 310.602051,191.425659 312.669312,193.318390 
	C318.705444,198.844971 318.738434,203.201416 312.994568,210.051773 
z"/>
<path fill="#FF3232" opacity="1.000000" stroke="none" 
	d="
M280.986511,181.999344 
	C279.217590,181.999359 277.908020,181.999359 276.306091,181.999359 
	C276.306091,184.369431 276.306091,186.420883 276.306091,188.213135 
	C279.113403,191.079529 286.345490,185.215225 285.927094,193.346451 
	C285.561859,200.445023 279.374908,195.109955 276.308563,197.908691 
	C276.308563,199.686432 276.308563,202.078613 276.308563,204.997604 
	C280.137543,204.997604 283.875305,204.997604 287.798828,204.997604 
	C287.798828,207.459152 287.798828,209.402802 287.798828,211.673630 
	C281.372009,211.673630 274.974518,211.673630 268.286560,211.673630 
	C268.286560,199.237564 268.286560,186.854279 268.286560,174.001083 
	C273.424591,174.001083 278.381561,174.087845 283.333527,173.967941 
	C286.217224,173.898087 288.084930,174.324295 288.084320,177.944992 
	C288.083740,181.454590 286.438507,182.292007 283.444122,182.008011 
	C282.783722,181.945374 282.112274,181.999161 280.986511,181.999344 
z"/>
<path fill="#FF3636" opacity="1.000000" stroke="none" 
	d="
M160.247452,178.564743 
	C161.969360,181.170883 163.502106,183.440338 165.195297,185.947357 
	C166.315155,184.183655 167.570908,182.873032 168.060776,181.320740 
	C170.381149,173.967987 175.564117,172.603470 182.938782,174.579681 
	C175.610840,185.746948 165.806854,196.278412 170.866730,211.716156 
	C166.894577,211.716156 164.177628,211.716156 160.327194,211.716156 
	C165.273499,196.322449 154.854477,186.033127 147.500931,173.755875 
	C152.705505,174.876526 158.194626,171.298203 160.247452,178.564743 
z"/>
<path fill="#8C8C8C" opacity="1.000000" stroke="none" 
	d="
M369.978821,269.994934 
	C369.978821,275.282623 369.978821,280.071686 369.978821,284.860779 
	C369.769623,284.860443 369.560394,284.860138 369.351196,284.859802 
	C369.351196,272.302826 369.351196,259.745850 369.351196,247.188858 
	C369.560394,247.185913 369.769623,247.182983 369.978821,247.180038 
	C369.978821,254.618805 369.978821,262.057556 369.978821,269.994934 
z"/>
<path fill="#8C8C8C" opacity="1.000000" stroke="none" 
	d="
M403.992004,273.969910 
	C403.992004,264.720337 403.992004,255.965088 403.992004,247.209824 
	C404.161346,247.204834 404.330719,247.199860 404.500061,247.194870 
	C404.500061,259.856567 404.500061,272.518280 404.500061,285.179993 
	C404.330719,285.186035 404.161346,285.192108 403.992004,285.198151 
	C403.992004,281.620178 403.992004,278.042175 403.992004,273.969910 
z"/>
<path fill="#FF6F6F" opacity="1.000000" stroke="none" 
	d="
M349.417511,211.685196 
	C349.011383,199.583298 349.009766,187.332535 349.010620,174.623840 
	C349.340210,174.805664 349.952179,175.445419 349.952179,176.085175 
	C349.952362,187.902222 349.879486,199.719269 349.417511,211.685196 
z"/>
<path fill="#C4C4C4" opacity="1.000000" stroke="none" 
	d="
M106.000290,271.988037 
	C106.000290,263.887238 106.000290,256.283905 106.000290,248.680557 
	C106.249992,248.684067 106.499702,248.687576 106.749405,248.691086 
	C106.749405,260.897339 106.749405,273.103607 106.749405,285.309875 
	C106.499702,285.312927 106.249992,285.316010 106.000290,285.319092 
	C106.000290,281.041229 106.000290,276.763336 106.000290,271.988037 
z"/>
<path fill="#9D9D9D" opacity="1.000000" stroke="none" 
	d="
M114.000351,267.000000 
	C114.000351,260.577942 114.000351,254.655411 114.000351,248.732880 
	C114.250290,248.737122 114.500229,248.741379 114.750168,248.745636 
	C114.750168,260.915192 114.750168,273.084717 114.750168,285.254272 
	C114.500229,285.258514 114.250290,285.262787 114.000351,285.267029 
	C114.000351,279.344543 114.000351,273.422028 114.000351,267.000000 
z"/>
<path fill="#494949" opacity="1.000000" stroke="none" 
	d="
M151.000580,267.998749 
	C151.000580,261.380859 151.000580,255.262268 151.000580,249.143692 
	C151.250259,249.146378 151.499954,249.149048 151.749634,249.151718 
	C151.749634,261.050537 151.749634,272.949341 151.749634,284.848175 
	C151.499954,284.850616 151.250259,284.853088 151.000580,284.855560 
	C151.000580,279.403046 151.000580,273.950562 151.000580,267.998749 
z"/>
<path fill="#151515" opacity="1.000000" stroke="none" 
	d="
M177.000122,274.942688 
	C177.000122,266.200043 177.000122,257.947021 177.000122,249.694000 
	C177.224426,249.693558 177.448746,249.693115 177.673050,249.692673 
	C177.673050,261.229858 177.673050,272.767029 177.673050,284.304199 
	C177.448746,284.314178 177.224426,284.324127 177.000122,284.334076 
	C177.000122,281.366852 177.000122,278.399597 177.000122,274.942688 
z"/>
<path fill="#C4C4C4" opacity="1.000000" stroke="none" 
	d="
M269.999756,255.168488 
	C269.999756,265.433502 269.999756,275.222076 269.999756,285.010651 
	C269.666595,285.018646 269.333405,285.026642 269.000244,285.034637 
	C269.000244,279.141357 269.000244,273.248077 269.000244,267.354797 
	C269.000244,261.226227 269.000244,255.097641 269.000244,248.969070 
	C269.333405,248.947983 269.666595,248.926910 269.999756,248.905823 
	C269.999756,250.834564 269.999756,252.763321 269.999756,255.168488 
z"/>
<path fill="#C4C4C4" opacity="1.000000" stroke="none" 
	d="
M336.000244,278.831512 
	C336.000244,268.566498 336.000244,258.777893 336.000244,248.989304 
	C336.333405,248.981308 336.666595,248.973312 336.999756,248.965332 
	C336.999756,254.858612 336.999756,260.751892 336.999756,266.645172 
	C336.999756,272.773834 336.999756,278.902496 336.999756,285.031158 
	C336.666595,285.052185 336.333405,285.073181 336.000244,285.094208 
	C336.000244,283.165436 336.000244,281.236694 336.000244,278.831512 
z"/>
<path fill="#000000" opacity="1.000000" stroke="none" 
	d="
M194.620605,196.164520 
	C193.306747,186.694656 198.908844,180.753860 207.833023,182.090759 
	C212.549896,182.797394 214.664505,186.805908 215.865402,190.949081 
	C217.155365,195.399551 214.546951,200.403366 210.119812,202.949265 
	C203.106506,206.982391 197.016632,204.396423 194.620605,196.164520 
z"/>
</svg>